HIERARCHY
ROOT Hips
{
	OFFSET -0.001795 -0.223333 0.028219
	CHANNELS 6 Xposition Yposition Zposition Zrotation Yrotation Xrotation 
	JOINT LeftUpLeg
	{
		OFFSET 0.069520 -0.091406 -0.006815
		CHANNELS 3 Zrotation Yrotation Xrotation
		JOINT LeftLeg
		{
			OFFSET 0.034277 -0.375199 -0.004496
			CHANNELS 3 Zrotation Yrotation Xrotation
			JOINT LeftFoot
			{
				OFFSET -0.013596 -0.397961 -0.043693
				CHANNELS 3 Zrotation Yrotation Xrotation
				JOINT LeftToe
				{
					OFFSET 0.026358 -0.055791 0.119288
					CHANNELS 3 Zrotation Yrotation Xrotation
					End Site
					{
						OFFSET 0.000000 0.000000 0.000000
					}
				}
			}
		}
	}
	JOINT RightUpLeg
	{
		OFFSET -0.067670 -0.090522 -0.004320
		CHANNELS 3 Zrotation Yrotation Xrotation
		JOINT RightLeg
		{
			OFFSET -0.038290 -0.382569 -0.008850
			CHANNELS 3 Zrotation Yrotation Xrotation
			JOINT RightFoot
			{
				OFFSET 0.015774 -0.398415 -0.042312
				CHANNELS 3 Zrotation Yrotation Xrotation
				JOINT RightToe
				{
					OFFSET -0.025372 -0.048144 0.123348
					CHANNELS 3 Zrotation Yrotation Xrotation
					End Site
					{
						OFFSET 0.000000 0.000000 0.000000
					}
				}
			}
		}
	}
	JOINT Spine
	{
		OFFSET -0.002533 0.108963 -0.026696
		CHANNELS 3 Zrotation Yrotation Xrotation
		JOINT Spine1
		{
			OFFSET 0.005487 0.135180 0.001092
			CHANNELS 3 Zrotation Yrotation Xrotation
			JOINT Spine2
			{
				OFFSET 0.001457 0.052922 0.025425
				CHANNELS 3 Zrotation Yrotation Xrotation
				JOINT Neck
				{
					OFFSET -0.002778 0.213870 -0.042857
					CHANNELS 3 Zrotation Yrotation Xrotation
					JOINT Head
					{
						OFFSET 0.005152 0.064970 0.051349
						CHANNELS 3 Zrotation Yrotation Xrotation
						End Site
						{
							OFFSET 0.000000 0.000000 0.000000
						}
					}
				}
				JOINT LeftShoulder
				{
					OFFSET 0.078845 0.121749 -0.034090
					CHANNELS 3 Zrotation Yrotation Xrotation
					JOINT LeftArm
					{
						OFFSET 0.090977 0.030469 -0.008868
						CHANNELS 3 Zrotation Yrotation Xrotation
						JOINT LeftForeArm
						{
							OFFSET 0.259612 -0.012772 -0.027456
							CHANNELS 3 Zrotation Yrotation Xrotation
							JOINT LeftHand
							{
								OFFSET 0.249234 0.008986 -0.001171
								CHANNELS 3 Zrotation Yrotation Xrotation
								End Site
								{
									OFFSET 0.000000 0.000000 0.000000
								}
							}
						}
					}
				}
				JOINT RightShoulder
				{
					OFFSET -0.081759 0.118833 -0.038615
					CHANNELS 3 Zrotation Yrotation Xrotation
					JOINT RightArm
					{
						OFFSET -0.096012 0.032551 -0.009143
						CHANNELS 3 Zrotation Yrotation Xrotation
						JOINT RightForeArm
						{
							OFFSET -0.253742 -0.013329 -0.021401
							CHANNELS 3 Zrotation Yrotation Xrotation
							JOINT RightHand
							{
								OFFSET -0.255298 0.007772 -0.005559
								CHANNELS 3 Zrotation Yrotation Xrotation
								End Site
								{
									OFFSET 0.000000 0.000000 0.000000
								}
							}
						}
					}
				}
			}
		}
	}
}
MOTION
Frames: 15
Frame Time: 0.050000
0.328672 0.951961 0.250618 -1.056594 6.790413 8.029236 5.430599 -0.808346 -12.017647 2.608576 -0.372082 1.979505 -40.901760 -45.635249 29.650846 0.000000 0.000000 0.000000 -13.091715 -0.139083 -17.191991 -2.739942 0.881521 10.798281 0.007230 -5.115464 16.646316 0.000000 0.000000 0.000000 -0.652915 -0.212732 6.100630 1.367109 -1.041525 5.221686 4.324038 -3.495464 -0.587924 -4.538761 3.615850 -12.836883 0.000000 0.000000 0.000000 -7.875709 -5.196052 1.551628 -40.405148 -1.893834 -3.758155 -89.585194 -42.654214 45.609075 0.000000 0.000000 0.000000 6.692007 9.699502 3.203741 39.865147 3.016295 -2.437323 89.666411 43.116784 42.909092 0.000000 0.000000 0.000000 
0.301674 0.949350 0.251360 -0.761817 7.285877 8.598381 6.672873 -0.784164 -12.562138 3.074096 -0.389572 1.461631 -40.911163 -46.308189 29.174348 0.000000 0.000000 0.000000 -12.420816 -0.061072 -17.076516 -2.436885 0.795717 10.462256 0.143340 -4.401196 15.128416 0.000000 0.000000 0.000000 -0.723452 -0.225433 6.545335 1.769227 -1.245738 4.972361 3.668711 -2.903310 -0.143871 -4.244234 3.525396 -13.725961 0.000000 0.000000 0.000000 -7.850847 -5.623006 1.626483 -39.640745 -4.283132 -2.978687 -89.402730 -47.082968 49.688842 0.000000 0.000000 0.000000 6.936912 10.997038 3.877629 41.008928 5.828863 -1.682434 88.665019 47.095097 47.052280 0.000000 0.000000 0.000000 
0.271879 0.949604 0.250073 -0.828701 7.350503 8.455794 7.900019 -0.752370 -13.558703 4.403443 -0.651750 2.895093 -40.639884 -46.382368 28.809117 0.000000 0.000000 0.000000 -11.077047 0.109497 -17.610465 -2.159665 0.765840 11.178953 -0.257589 -4.713583 13.420564 0.000000 0.000000 0.000000 -0.252361 -0.358400 8.359513 1.858132 -1.231759 4.266199 3.737484 -3.089939 0.084721 -4.841474 3.887247 -15.824362 0.000000 0.000000 0.000000 -7.919986 -6.719470 2.118006 -41.518398 -8.328774 -1.835237 -83.071987 -52.716981 50.655350 0.000000 0.000000 0.000000 6.421294 13.873599 5.067008 41.845644 10.022899 -0.369603 84.862655 53.439290 50.742575 0.000000 0.000000 0.000000 
0.240545 0.950736 0.246707 -0.993017 7.596746 8.505172 9.456547 -0.680660 -14.204726 5.456423 -0.791251 2.968372 -40.692863 -45.733633 29.453625 0.000000 0.000000 0.000000 -9.089114 0.376358 -18.087263 -2.643823 0.880007 11.534174 0.171349 -3.795603 13.148232 0.000000 0.000000 0.000000 -0.166735 -0.475607 10.335503 3.287761 -1.920609 3.716087 2.751825 -2.457101 0.513908 -3.977070 3.510912 -17.654420 0.000000 0.000000 0.000000 -8.319964 -9.794093 3.314233 -41.927099 -14.523151 0.191224 -66.980186 -59.426213 44.212200 0.000000 0.000000 0.000000 6.857191 17.584736 6.832691 41.497038 16.826192 1.804144 71.624829 61.366117 48.621984 0.000000 0.000000 0.000000 
0.208591 0.952989 0.240684 -1.094005 8.274972 8.753657 11.212405 -0.623599 -15.943708 5.800324 -0.897828 3.675047 -41.824982 -44.010197 32.436157 0.000000 0.000000 0.000000 -7.859334 0.532531 -18.762632 -2.033673 0.738504 11.596499 0.999943 -2.014584 12.763373 0.000000 0.000000 0.000000 -0.053570 -0.634928 12.626974 3.163689 -1.854291 3.597145 2.976299 -3.176335 0.808387 -4.337419 3.703620 -20.447571 0.000000 0.000000 0.000000 -7.593619 -13.149050 4.840193 -42.924504 -24.134176 3.564872 -31.227962 -60.784745 21.325484 0.000000 0.000000 0.000000 5.175946 21.794273 8.407919 42.361504 26.028435 5.035655 36.055571 64.618510 25.504521 0.000000 0.000000 0.000000 
0.176482 0.954607 0.232601 -1.189568 9.618015 9.056517 12.851581 -0.587053 -17.451399 6.056995 -0.900692 3.420220 -42.308606 -41.722376 35.144836 0.000000 0.000000 0.000000 -6.148495 0.745866 -19.852851 -2.465637 0.837875 12.467727 2.349370 0.735417 12.847015 0.000000 0.000000 0.000000 0.076703 -0.849146 15.122127 3.534440 -2.050128 3.446707 2.658501 -3.668065 1.392476 -4.179372 3.661739 -21.909276 0.000000 0.000000 0.000000 -6.515058 -18.164309 6.935815 -40.263867 -34.390539 6.709212 -1.824531 -50.164412 2.951822 0.000000 0.000000 0.000000 4.366812 27.034671 10.558433 39.363682 36.941480 8.152304 -0.103362 54.250017 2.040864 0.000000 0.000000 0.000000 
0.144844 0.956052 0.223439 -1.246987 11.081573 9.787863 14.214125 -0.589404 -20.152507 6.203178 -1.001527 4.304452 -31.315775 -28.929240 32.070951 0.000000 0.000000 0.000000 -4.835839 0.920651 -21.430276 -1.427224 0.570704 12.519987 3.059968 2.035327 13.567600 0.000000 0.000000 0.000000 0.351213 -1.149146 17.768916 2.942239 -1.688946 2.697925 2.858269 -4.180455 1.929736 -4.515020 3.871426 -24.851381 0.000000 0.000000 0.000000 -3.367828 -22.837385 8.562744 -35.816593 -45.699323 9.283116 12.288957 -30.358875 -2.078744 0.000000 0.000000 0.000000 -0.353882 31.931215 11.593405 34.856504 51.038346 11.379104 -12.941715 30.540293 -2.210053 0.000000 0.000000 0.000000 
0.114938 0.956441 0.214423 -1.258773 12.010104 10.369843 15.733240 -0.524765 -22.943550 5.304616 -1.001287 5.626122 -21.317121 -15.476970 30.918564 0.000000 0.000000 0.000000 -3.466891 1.148396 -23.338497 -0.906927 0.440154 13.636786 4.134003 4.215117 13.423209 0.000000 0.000000 0.000000 0.101009 -1.381818 20.544778 2.875102 -1.647256 2.515383 2.794431 -3.663274 1.781174 -4.873874 4.126541 -25.587379 0.000000 0.000000 0.000000 -0.063161 -27.709381 9.910424 -27.004516 -53.521728 8.056964 14.514000 -12.861090 -1.088758 0.000000 0.000000 0.000000 -3.571549 36.064223 12.434750 20.800356 60.724076 7.385781 -12.822077 8.331398 -0.397878 0.000000 0.000000 0.000000 
0.088617 0.956242 0.207435 -0.994782 14.098818 11.215438 16.095871 -0.707684 -25.466396 4.386222 -0.982344 6.897694 -12.224649 -4.273552 28.199238 0.000000 0.000000 0.000000 -2.996133 1.132391 -24.811686 0.247541 0.097021 13.681340 3.435606 3.126809 13.555683 0.000000 0.000000 0.000000 0.467158 -1.790060 22.705744 2.240276 -1.237794 1.364899 2.645057 -3.582834 2.188794 -5.242672 4.412071 -26.498834 0.000000 0.000000 0.000000 3.419041 -31.407812 10.560604 -16.469428 -59.682157 4.099894 12.494698 -0.558365 0.025541 0.000000 0.000000 0.000000 -8.932864 37.644931 11.493749 6.969187 66.185499 0.500817 -8.071575 -6.818583 0.465484 0.000000 0.000000 0.000000 
0.066786 0.956374 0.202665 -0.865981 14.678093 11.376839 16.552275 -0.725429 -26.701726 4.215488 -1.072932 8.108020 -7.507523 1.472918 26.761684 0.000000 0.000000 0.000000 -1.822396 1.342244 -25.400459 0.138168 0.110166 13.673090 3.184158 2.881100 13.103233 0.000000 0.000000 0.000000 0.139949 -1.894815 24.066892 1.814929 -1.001065 0.984921 2.440069 -2.551273 2.452233 -6.528992 5.152919 -24.567290 0.000000 0.000000 0.000000 4.901741 -35.326260 11.503324 -7.779113 -61.138268 -0.499019 12.088037 5.678627 0.457849 0.000000 0.000000 0.000000 -11.816308 38.932704 11.031748 -5.978079 65.906062 -6.866696 -3.529239 -14.995353 0.172232 0.000000 0.000000 0.000000 
0.049646 0.957253 0.199856 -0.634277 15.165549 11.731211 16.212231 -0.844082 -27.747854 4.349966 -1.233368 9.447144 -5.916837 3.416541 26.190516 0.000000 0.000000 0.000000 -1.177327 1.456205 -26.105527 0.126308 0.099376 13.890630 3.251769 3.133846 12.880451 0.000000 0.000000 0.000000 0.213852 -2.070855 25.134072 0.858004 -0.555945 1.000237 2.469390 -2.150146 2.660471 -6.683771 5.283659 -24.229522 0.000000 0.000000 0.000000 7.489981 -37.620491 11.613858 -2.113077 -61.924094 -3.667461 10.629044 9.982019 0.622233 0.000000 0.000000 0.000000 -15.397627 39.295932 9.985698 -14.817308 66.008692 -11.965524 1.316009 -19.836667 -0.699525 0.000000 0.000000 0.000000 
0.036643 0.957803 0.198409 -0.449179 15.144347 11.838691 15.840044 -0.900673 -27.941256 4.414974 -1.272722 9.713822 -5.697864 3.511860 25.685699 0.000000 0.000000 0.000000 -0.110841 1.691591 -26.602658 -0.747422 0.319481 14.734569 3.229614 3.455841 11.768390 0.000000 0.000000 0.000000 -0.313902 -2.069794 26.336181 0.042232 -0.125411 0.394064 2.546864 -1.757556 3.750538 -7.253962 5.631338 -23.500586 0.000000 0.000000 0.000000 10.570380 -39.519357 11.323787 2.444410 -61.501078 -6.221033 9.994432 12.023391 0.666327 0.000000 0.000000 0.000000 -19.204499 39.287291 8.667098 -19.535428 64.718693 -14.226766 3.533079 -21.176173 -1.187551 0.000000 0.000000 0.000000 
0.027165 0.958544 0.198076 -0.517549 15.423023 11.726402 15.645365 -0.947954 -27.786025 4.387875 -1.234471 9.385512 -6.114054 3.265583 26.311062 0.000000 0.000000 0.000000 0.515174 1.799515 -26.247252 -0.665647 0.290968 14.608796 3.012660 3.384878 10.842917 0.000000 0.000000 0.000000 -0.271917 -2.150584 26.738647 -0.322012 0.069600 0.012338 2.165688 -1.186475 4.246623 -7.266168 5.742056 -22.501379 0.000000 0.000000 0.000000 11.262029 -40.485288 11.362032 3.724239 -61.935788 -7.176504 8.756326 12.614431 0.547780 0.000000 0.000000 0.000000 -20.455847 39.452613 8.247988 -19.624185 64.511950 -13.949431 4.198815 -22.293848 -1.367807 0.000000 0.000000 0.000000 
0.020820 0.958749 0.198706 -0.899215 14.902381 11.311698 15.476493 -0.899596 -27.543775 4.558722 -1.264049 9.398159 -5.825233 3.396392 25.882132 0.000000 0.000000 0.000000 1.686605 2.055107 -25.680624 -1.025130 0.401921 14.113207 2.912736 3.157407 10.772157 0.000000 0.000000 0.000000 -1.078858 -1.908236 26.934333 -0.797368 0.285215 0.079952 2.335855 -0.188678 4.537933 -7.753766 6.085507 -21.395729 0.000000 0.000000 0.000000 12.507577 -40.892722 11.078632 1.824051 -61.757991 -6.346582 8.781160 12.298519 0.527668 0.000000 0.000000 0.000000 -21.249114 39.494165 7.928872 -17.101091 64.696371 -12.274628 3.039497 -22.906701 -1.135751 0.000000 0.000000 0.000000 
0.017380 0.958363 0.199888 -1.175946 15.378625 11.157803 15.581073 -0.926225 -27.379005 4.467996 -1.175071 8.691932 -6.543980 2.614410 26.075377 0.000000 0.000000 0.000000 2.246703 2.110148 -25.015879 -0.842035 0.342906 13.560501 2.364005 2.398048 9.956988 0.000000 0.000000 0.000000 -1.189828 -1.844995 26.377287 -0.890356 0.291546 0.528863 1.910448 0.296270 4.590922 -6.962882 5.770466 -20.903305 0.000000 0.000000 0.000000 11.801029 -41.126611 11.290074 -0.316897 -61.741408 -5.364167 8.774375 11.445825 0.484826 0.000000 0.000000 0.000000 -19.738249 39.947945 8.516376 -11.848009 65.293238 -9.166157 1.191828 -22.002190 -0.685696 0.000000 0.000000 0.000000 
